<svg xmlns="http://www.w3.org/2000/svg" width="800" height="800" viewBox="0 0 24 24" fill="none" stroke="white">
    <g stroke-width="1.5">
        <path d="M4 4a1 1 0 0 1 1-1h9 .586a1 1 0 0 1 .707.293l4.414 4.414a1 1 0 0 1 .293.707V20a1 1 0 0 1-1 1H5a1 1 0 0 1-1-1V4z"/>
        <path d="M20 8H15V3" stroke-linecap="round" stroke-linejoin="round"/>
    </g>
    <g stroke-width="1">
        <path d="M11.5 13H11v4h.5a2 2 0 1 0 0-4z" stroke-linejoin="round"/>
        <path d="M15.5 17v-4h2M16 15h1M7 17v-1.5m0 0V13h.75A1.25 1.25 0 0 1 9 14.25h0a1.25 1.25 0 0 1-1.25 1.25H7z" stroke-linejoin="round" stroke-linecap="round"/>
    </g>
</svg>