<svg xmlns="http://www.w3.org/2000/svg" width="100%" viewBox="0 0 512 512" height="150">
    <path fill="#e8edf3" d="M444.579 114.666a47.64 47.64 0 0 1 .414 6.35l.137 366.897c.013 8.623-8.376 17.167-17.311 17.159-113.801-.108-227.603-.115-341.404.014-9.025.01-17.57-8.453-17.558-17.44l.008-461.37C68.853 17.346 77.257 8.937 86 8.947l249.43.062c1.951 0 3.961-.229 6.107 1.117 8.333 4.102 11.156 10.921 11.148 19.387l.043 47.435c.118 11.327 5.937 19.67 15.709 23.159 3.045 1.087 6.182 1.212 9.353 1.212l41.943.002c1.831 0 3.663-.038 5.492.043 9.015.4 16.248 3.443 19.354 13.302z"/>
    <path fill="#c0cfdd" d="M444.915 114.627c-.247.356-.505.361-.554.263-5.575-11.22-15.491-12.287-26.479-11.957-14.121.424-28.264.138-42.397.086-13.37-.05-24.368-10.975-24.465-24.414-.105-14.632-.403-29.277.104-43.892.329-9.478-1.168-17.743-9.114-24.183 8.345.034 15.085 4.232 20.736 9.809l70.94 70.853c6.328 6.358 9.609 14.343 11.228 23.437z"/>
    <path fill="#5724e2" d="M168.078 172.112c33.435-55.076 103.47-68.645 152.641-29.096 31.152 25.056 43.765 58.561 36.808 97.76-6.998 39.427-30.827 65.918-68.715 79.224-4.702 1.651-6.843 3.442-6.216 8.597.52 4.268.252 8.659.054 12.982-.273 5.989-3.55 9.246-9.488 9.311-10.829.119-21.662.126-32.491-.007-5.719-.07-9.206-3.262-9.283-8.957-.193-14.327-.504-28.678.106-42.982.621-14.553 11.551-24.462 26.146-24.918 26.508-.827 48.041-20.453 50.286-45.832 2.398-27.101-14.892-50.173-41.69-55.632-26.561-5.411-53.853 12.835-59.267 39.622-1.854 9.174-3.748 10.739-13.025 10.742-9.498.003-18.996.047-28.493-.015-7.713-.051-11.208-4.161-10.21-11.836 1.778-13.68 5.828-26.617 12.837-38.963z"/>
    <path fill="#5826e2" d="M282.709 409.002l-.026 16.992c-.152 7.078-3.155 10.073-10.111 10.113-10.495.06-20.992.07-31.487-.005-6.38-.046-9.629-3.066-9.735-9.444-.178-10.659-.168-21.326-.005-31.985.101-6.621 3.368-9.626 10.077-9.662l31.487.006c6.323.047 9.517 3.144 9.756 9.493.175 4.658.041 9.328.045 14.492z"/>
</svg>