<svg xmlns="http://www.w3.org/2000/svg" width="800" height="800" viewBox="0 0 24 24" fill="none">
    <path d="M4 7.5l7.608-4.279c.143-.08.215-.121.29-.136a.5.5 0 0 1 .204 0c.076.016.147.056.29.136L20 7.5m-16 0v8.532c0 .17 0 .256.025.332a.5.5 0 0 0 .106.181c.054.059.128.101.277.184L12 21M4 7.5l8 4m0 9.5l7.592-4.271c.149-.083.223-.125.277-.184a.5.5 0 0 0 .106-.181c.025-.076.025-.161.025-.332V7.5M12 21v-9.5m8-4l-8 4" stroke="white" stroke-width="2" stroke-linecap="round" stroke-linejoin="round"/>
</svg>
