<svg xmlns="http://www.w3.org/2000/svg" width="16" height="16" viewBox="0 0 24 24" fill="none">
    <path d="M9.5 9.5l5 5m0-5l-5 5M20 12c0 4.461-5.46 7.694-7.359 8.683-.205.107-.308.16-.45.188-.111.022-.271.022-.382 0-.142-.028-.245-.081-.45-.188C9.46 19.694 4 16.461 4 12V8.218c0-.8 0-1.199.131-1.543a2 2 0 0 1 .547-.789c.276-.243.65-.383 1.399-.664l5.362-2.011c.208-.078.312-.117.419-.132a1 1 0 0 1 .286 0c.107.015.211.054.419.132l5.362 2.011c.749.281 1.123.421 1.399.664a2 2 0 0 1 .547.789c.131.344.131.743.131 1.543V12z" stroke="white" stroke-width="2" stroke-linecap="round" stroke-linejoin="round"/>
</svg>