<svg xmlns="http://www.w3.org/2000/svg" width="16" height="16" viewBox="0 0 24 24" fill="none">
    <path
          d="M11.359 20.683c.205.107.308.16.45.188.111.022.271.022.382 0 .142-.028.245-.081.45-.188C14.54 19.694 20 16.461 20 12V8.218c0-.8 0-1.199-.131-1.543a2 2 0 0 0-.547-.789c-.276-.243-.65-.383-1.399-.664l-5.362-2.011c-.208-.078-.312-.117-.419-.132a1 1 0 0 0-.286 0c-.107.015-.211.054-.419.132L6.076 5.221c-.749.281-1.123.421-1.399.664a2 2 0 0 0-.547.789C4 7.018 4 7.418 4 8.218V12c0 4.461 5.46 7.694 7.359 8.683z"
          stroke="white"
          stroke-width="2"
          stroke-linejoin="round"
        />
</svg>